<mxfile host="app.diagrams.net" agent="Mozilla/5.0 (Windows NT 10.0; Win64; x64) AppleWebKit/537.36 (KHTML, like Gecko) Chrome/133.0.0.0 Safari/537.36" version="26.0.10" pages="4">
  <diagram name="Page-1" id="cTdNTrZdiVtizNcZopHO">
    <mxGraphModel dx="1793" dy="933" grid="1" gridSize="10" guides="1" tooltips="1" connect="1" arrows="1" fold="1" page="1" pageScale="1" pageWidth="1169" pageHeight="827" math="0" shadow="0">
      <root>
        <mxCell id="0" />
        <mxCell id="1" parent="0" />
        <mxCell id="jPDuKESHbQuXLP3hNdnU-40" value="" style="endArrow=ERone;html=1;rounded=0;startArrow=ERmany;startFill=0;endFill=0;" edge="1" parent="1" source="jPDuKESHbQuXLP3hNdnU-19" target="jPDuKESHbQuXLP3hNdnU-4">
          <mxGeometry width="50" height="50" relative="1" as="geometry">
            <mxPoint x="460" y="460" as="sourcePoint" />
            <mxPoint x="460" y="300" as="targetPoint" />
          </mxGeometry>
        </mxCell>
        <mxCell id="jPDuKESHbQuXLP3hNdnU-1" value="EEV Matter" style="ellipse;whiteSpace=wrap;html=1;" vertex="1" parent="1">
          <mxGeometry x="200" y="280" width="120" height="80" as="geometry" />
        </mxCell>
        <mxCell id="jPDuKESHbQuXLP3hNdnU-2" value="Case" style="ellipse;whiteSpace=wrap;html=1;" vertex="1" parent="1">
          <mxGeometry x="520" y="280" width="120" height="80" as="geometry" />
        </mxCell>
        <mxCell id="jPDuKESHbQuXLP3hNdnU-3" value="" style="endArrow=ERone;html=1;rounded=0;startArrow=ERmany;startFill=0;endFill=0;" edge="1" parent="1" source="jPDuKESHbQuXLP3hNdnU-1" target="jPDuKESHbQuXLP3hNdnU-2">
          <mxGeometry width="50" height="50" relative="1" as="geometry">
            <mxPoint x="30" y="370" as="sourcePoint" />
            <mxPoint x="80" y="320" as="targetPoint" />
          </mxGeometry>
        </mxCell>
        <mxCell id="jPDuKESHbQuXLP3hNdnU-4" value="Project" style="ellipse;whiteSpace=wrap;html=1;" vertex="1" parent="1">
          <mxGeometry x="520" y="160" width="120" height="80" as="geometry" />
        </mxCell>
        <mxCell id="jPDuKESHbQuXLP3hNdnU-5" value="" style="endArrow=ERone;html=1;rounded=0;startArrow=ERmany;startFill=0;endFill=0;" edge="1" parent="1" source="jPDuKESHbQuXLP3hNdnU-1" target="jPDuKESHbQuXLP3hNdnU-4">
          <mxGeometry width="50" height="50" relative="1" as="geometry">
            <mxPoint x="80" y="260" as="sourcePoint" />
            <mxPoint x="260" y="200" as="targetPoint" />
          </mxGeometry>
        </mxCell>
        <mxCell id="jPDuKESHbQuXLP3hNdnU-6" value="Division" style="ellipse;whiteSpace=wrap;html=1;" vertex="1" parent="1">
          <mxGeometry x="200" y="160" width="120" height="80" as="geometry" />
        </mxCell>
        <mxCell id="jPDuKESHbQuXLP3hNdnU-7" value="" style="endArrow=ERone;html=1;rounded=0;startArrow=ERmany;startFill=0;endFill=0;" edge="1" parent="1" source="jPDuKESHbQuXLP3hNdnU-1" target="jPDuKESHbQuXLP3hNdnU-6">
          <mxGeometry width="50" height="50" relative="1" as="geometry">
            <mxPoint x="90" y="350" as="sourcePoint" />
            <mxPoint x="125" y="193" as="targetPoint" />
          </mxGeometry>
        </mxCell>
        <mxCell id="jPDuKESHbQuXLP3hNdnU-8" value="EEV Matter config" style="ellipse;whiteSpace=wrap;html=1;" vertex="1" parent="1">
          <mxGeometry x="40" y="160" width="120" height="80" as="geometry" />
        </mxCell>
        <mxCell id="jPDuKESHbQuXLP3hNdnU-9" value="" style="endArrow=ERone;html=1;rounded=0;startArrow=ERmany;startFill=0;endFill=0;" edge="1" parent="1" source="jPDuKESHbQuXLP3hNdnU-1" target="jPDuKESHbQuXLP3hNdnU-8">
          <mxGeometry width="50" height="50" relative="1" as="geometry">
            <mxPoint x="110" y="360" as="sourcePoint" />
            <mxPoint x="-93" y="243" as="targetPoint" />
          </mxGeometry>
        </mxCell>
        <mxCell id="jPDuKESHbQuXLP3hNdnU-10" value="Data set" style="ellipse;whiteSpace=wrap;html=1;" vertex="1" parent="1">
          <mxGeometry x="40" y="40" width="120" height="80" as="geometry" />
        </mxCell>
        <mxCell id="jPDuKESHbQuXLP3hNdnU-11" value="" style="endArrow=ERone;html=1;rounded=0;startArrow=ERmany;startFill=0;endFill=0;" edge="1" parent="1" source="jPDuKESHbQuXLP3hNdnU-8" target="jPDuKESHbQuXLP3hNdnU-10">
          <mxGeometry width="50" height="50" relative="1" as="geometry">
            <mxPoint x="201" y="328" as="sourcePoint" />
            <mxPoint x="-51" y="362" as="targetPoint" />
          </mxGeometry>
        </mxCell>
        <mxCell id="jPDuKESHbQuXLP3hNdnU-12" value="EEV Matter Recipient" style="ellipse;whiteSpace=wrap;html=1;" vertex="1" parent="1">
          <mxGeometry x="40" y="400" width="120" height="80" as="geometry" />
        </mxCell>
        <mxCell id="jPDuKESHbQuXLP3hNdnU-13" value="" style="endArrow=ERone;html=1;rounded=0;startArrow=ERmany;startFill=0;endFill=0;" edge="1" parent="1" source="jPDuKESHbQuXLP3hNdnU-12" target="jPDuKESHbQuXLP3hNdnU-1">
          <mxGeometry width="50" height="50" relative="1" as="geometry">
            <mxPoint x="230" y="300" as="sourcePoint" />
            <mxPoint x="150" y="240" as="targetPoint" />
          </mxGeometry>
        </mxCell>
        <mxCell id="jPDuKESHbQuXLP3hNdnU-16" value="EEV Matter Responding Party" style="ellipse;whiteSpace=wrap;html=1;" vertex="1" parent="1">
          <mxGeometry x="200" y="400" width="120" height="80" as="geometry" />
        </mxCell>
        <mxCell id="jPDuKESHbQuXLP3hNdnU-17" value="" style="endArrow=ERone;html=1;rounded=0;startArrow=ERmany;startFill=0;endFill=0;" edge="1" parent="1" source="jPDuKESHbQuXLP3hNdnU-16" target="jPDuKESHbQuXLP3hNdnU-1">
          <mxGeometry width="50" height="50" relative="1" as="geometry">
            <mxPoint x="150" y="420" as="sourcePoint" />
            <mxPoint x="230" y="360" as="targetPoint" />
          </mxGeometry>
        </mxCell>
        <mxCell id="jPDuKESHbQuXLP3hNdnU-18" value="EEV Working copy" style="ellipse;whiteSpace=wrap;html=1;" vertex="1" parent="1">
          <mxGeometry x="840" y="760" width="120" height="80" as="geometry" />
        </mxCell>
        <mxCell id="jPDuKESHbQuXLP3hNdnU-19" value="Evidence" style="ellipse;whiteSpace=wrap;html=1;" vertex="1" parent="1">
          <mxGeometry x="680" y="400" width="120" height="80" as="geometry" />
        </mxCell>
        <mxCell id="jPDuKESHbQuXLP3hNdnU-20" value="" style="endArrow=ERone;html=1;rounded=0;startArrow=ERmany;startFill=0;endFill=0;" edge="1" parent="1" source="jPDuKESHbQuXLP3hNdnU-18" target="jPDuKESHbQuXLP3hNdnU-19">
          <mxGeometry width="50" height="50" relative="1" as="geometry">
            <mxPoint x="1110" y="380" as="sourcePoint" />
            <mxPoint x="1190" y="320" as="targetPoint" />
          </mxGeometry>
        </mxCell>
        <mxCell id="jPDuKESHbQuXLP3hNdnU-21" value="EEV Working copy request" style="ellipse;whiteSpace=wrap;html=1;" vertex="1" parent="1">
          <mxGeometry x="840" y="640" width="120" height="80" as="geometry" />
        </mxCell>
        <mxCell id="jPDuKESHbQuXLP3hNdnU-22" value="" style="endArrow=ERone;html=1;rounded=0;startArrow=ERmany;startFill=0;endFill=0;" edge="1" parent="1" source="jPDuKESHbQuXLP3hNdnU-18" target="jPDuKESHbQuXLP3hNdnU-21">
          <mxGeometry width="50" height="50" relative="1" as="geometry">
            <mxPoint x="1300" y="650" as="sourcePoint" />
            <mxPoint x="1004" y="585" as="targetPoint" />
          </mxGeometry>
        </mxCell>
        <mxCell id="jPDuKESHbQuXLP3hNdnU-24" value="EEV Working copy location" style="ellipse;whiteSpace=wrap;html=1;" vertex="1" parent="1">
          <mxGeometry x="1000" y="520" width="120" height="80" as="geometry" />
        </mxCell>
        <mxCell id="jPDuKESHbQuXLP3hNdnU-25" value="" style="endArrow=ERone;html=1;rounded=0;startArrow=ERmany;startFill=0;endFill=0;" edge="1" parent="1" source="jPDuKESHbQuXLP3hNdnU-21" target="jPDuKESHbQuXLP3hNdnU-19">
          <mxGeometry width="50" height="50" relative="1" as="geometry">
            <mxPoint x="1088" y="636" as="sourcePoint" />
            <mxPoint x="1042" y="589" as="targetPoint" />
          </mxGeometry>
        </mxCell>
        <mxCell id="jPDuKESHbQuXLP3hNdnU-26" value="" style="endArrow=ERone;html=1;rounded=0;startArrow=ERmany;startFill=0;endFill=0;" edge="1" parent="1" source="jPDuKESHbQuXLP3hNdnU-21" target="jPDuKESHbQuXLP3hNdnU-24">
          <mxGeometry width="50" height="50" relative="1" as="geometry">
            <mxPoint x="1320" y="680" as="sourcePoint" />
            <mxPoint x="1110" y="600" as="targetPoint" />
          </mxGeometry>
        </mxCell>
        <mxCell id="jPDuKESHbQuXLP3hNdnU-27" value="" style="endArrow=ERone;html=1;rounded=0;startArrow=ERmany;startFill=0;endFill=0;" edge="1" parent="1" source="jPDuKESHbQuXLP3hNdnU-18" target="jPDuKESHbQuXLP3hNdnU-24">
          <mxGeometry width="50" height="50" relative="1" as="geometry">
            <mxPoint x="1210" y="820" as="sourcePoint" />
            <mxPoint x="1320" y="780" as="targetPoint" />
          </mxGeometry>
        </mxCell>
        <mxCell id="jPDuKESHbQuXLP3hNdnU-28" value="" style="endArrow=ERone;html=1;rounded=0;startArrow=ERmany;startFill=0;endFill=0;" edge="1" parent="1" source="jPDuKESHbQuXLP3hNdnU-19" target="jPDuKESHbQuXLP3hNdnU-2">
          <mxGeometry width="50" height="50" relative="1" as="geometry">
            <mxPoint x="270" y="700" as="sourcePoint" />
            <mxPoint x="190" y="640" as="targetPoint" />
          </mxGeometry>
        </mxCell>
        <mxCell id="jPDuKESHbQuXLP3hNdnU-30" value="" style="endArrow=ERone;html=1;rounded=0;startArrow=ERmany;startFill=0;endFill=0;" edge="1" parent="1" source="jPDuKESHbQuXLP3hNdnU-19" target="jPDuKESHbQuXLP3hNdnU-29">
          <mxGeometry width="50" height="50" relative="1" as="geometry">
            <mxPoint x="470" y="480" as="sourcePoint" />
            <mxPoint x="430" y="370" as="targetPoint" />
          </mxGeometry>
        </mxCell>
        <mxCell id="jPDuKESHbQuXLP3hNdnU-31" value="" style="endArrow=ERone;html=1;rounded=0;startArrow=ERmany;startFill=0;endFill=0;" edge="1" parent="1" source="jPDuKESHbQuXLP3hNdnU-36" target="jPDuKESHbQuXLP3hNdnU-1">
          <mxGeometry width="50" height="50" relative="1" as="geometry">
            <mxPoint x="360" y="490" as="sourcePoint" />
            <mxPoint x="566" y="367" as="targetPoint" />
          </mxGeometry>
        </mxCell>
        <mxCell id="jPDuKESHbQuXLP3hNdnU-32" value="Evidence Location" style="ellipse;whiteSpace=wrap;html=1;" vertex="1" parent="1">
          <mxGeometry x="680" y="280" width="120" height="80" as="geometry" />
        </mxCell>
        <mxCell id="jPDuKESHbQuXLP3hNdnU-33" value="" style="endArrow=ERone;html=1;rounded=0;startArrow=ERmany;startFill=0;endFill=0;" edge="1" parent="1" source="jPDuKESHbQuXLP3hNdnU-19" target="jPDuKESHbQuXLP3hNdnU-32">
          <mxGeometry width="50" height="50" relative="1" as="geometry">
            <mxPoint x="360" y="700" as="sourcePoint" />
            <mxPoint x="294" y="367" as="targetPoint" />
          </mxGeometry>
        </mxCell>
        <mxCell id="jPDuKESHbQuXLP3hNdnU-34" value="Evidence Type" style="ellipse;whiteSpace=wrap;html=1;" vertex="1" parent="1">
          <mxGeometry x="840" y="160" width="120" height="80" as="geometry" />
        </mxCell>
        <mxCell id="jPDuKESHbQuXLP3hNdnU-35" value="" style="endArrow=ERone;html=1;rounded=0;startArrow=ERmany;startFill=0;endFill=0;" edge="1" parent="1" source="jPDuKESHbQuXLP3hNdnU-19" target="jPDuKESHbQuXLP3hNdnU-34">
          <mxGeometry width="50" height="50" relative="1" as="geometry">
            <mxPoint x="510" y="550" as="sourcePoint" />
            <mxPoint x="750" y="370" as="targetPoint" />
          </mxGeometry>
        </mxCell>
        <mxCell id="jPDuKESHbQuXLP3hNdnU-38" value="ICMS Investigation" style="ellipse;whiteSpace=wrap;html=1;" vertex="1" parent="1">
          <mxGeometry x="1000" y="160" width="120" height="80" as="geometry" />
        </mxCell>
        <mxCell id="jPDuKESHbQuXLP3hNdnU-39" value="" style="endArrow=ERone;html=1;rounded=0;startArrow=ERmany;startFill=0;endFill=0;" edge="1" parent="1" source="jPDuKESHbQuXLP3hNdnU-19" target="jPDuKESHbQuXLP3hNdnU-38">
          <mxGeometry width="50" height="50" relative="1" as="geometry">
            <mxPoint x="610" y="580" as="sourcePoint" />
            <mxPoint x="1146" y="380" as="targetPoint" />
          </mxGeometry>
        </mxCell>
        <mxCell id="jPDuKESHbQuXLP3hNdnU-41" value="Cartel Immunity" style="ellipse;whiteSpace=wrap;html=1;" vertex="1" parent="1">
          <mxGeometry x="1000" y="280" width="120" height="80" as="geometry" />
        </mxCell>
        <mxCell id="jPDuKESHbQuXLP3hNdnU-42" value="" style="endArrow=ERone;html=1;rounded=0;startArrow=ERmany;startFill=0;endFill=0;" edge="1" parent="1" source="jPDuKESHbQuXLP3hNdnU-19" target="jPDuKESHbQuXLP3hNdnU-41">
          <mxGeometry width="50" height="50" relative="1" as="geometry">
            <mxPoint x="485" y="554" as="sourcePoint" />
            <mxPoint x="1175" y="346" as="targetPoint" />
          </mxGeometry>
        </mxCell>
        <mxCell id="jPDuKESHbQuXLP3hNdnU-43" value="Evidence Action" style="ellipse;whiteSpace=wrap;html=1;" vertex="1" parent="1">
          <mxGeometry x="680" y="760" width="120" height="80" as="geometry" />
        </mxCell>
        <mxCell id="jPDuKESHbQuXLP3hNdnU-44" value="" style="endArrow=ERone;html=1;rounded=0;startArrow=ERmany;startFill=0;endFill=0;" edge="1" parent="1" source="jPDuKESHbQuXLP3hNdnU-43" target="jPDuKESHbQuXLP3hNdnU-19">
          <mxGeometry width="50" height="50" relative="1" as="geometry">
            <mxPoint x="406" y="533" as="sourcePoint" />
            <mxPoint x="294" y="367" as="targetPoint" />
          </mxGeometry>
        </mxCell>
        <mxCell id="jPDuKESHbQuXLP3hNdnU-45" value="Evidence Item" style="ellipse;whiteSpace=wrap;html=1;" vertex="1" parent="1">
          <mxGeometry x="520" y="640" width="120" height="80" as="geometry" />
        </mxCell>
        <mxCell id="jPDuKESHbQuXLP3hNdnU-46" value="" style="endArrow=ERone;html=1;rounded=0;startArrow=ERmany;startFill=0;endFill=0;" edge="1" parent="1" source="jPDuKESHbQuXLP3hNdnU-43" target="jPDuKESHbQuXLP3hNdnU-45">
          <mxGeometry width="50" height="50" relative="1" as="geometry">
            <mxPoint x="640" y="964" as="sourcePoint" />
            <mxPoint x="750" y="860" as="targetPoint" />
          </mxGeometry>
        </mxCell>
        <mxCell id="jPDuKESHbQuXLP3hNdnU-51" value="" style="endArrow=ERone;html=1;rounded=0;startArrow=ERmany;startFill=0;endFill=0;" edge="1" parent="1" source="jPDuKESHbQuXLP3hNdnU-45" target="jPDuKESHbQuXLP3hNdnU-19">
          <mxGeometry width="50" height="50" relative="1" as="geometry">
            <mxPoint x="310" y="660" as="sourcePoint" />
            <mxPoint x="390" y="600" as="targetPoint" />
          </mxGeometry>
        </mxCell>
        <mxCell id="jPDuKESHbQuXLP3hNdnU-52" value="" style="endArrow=ERone;html=1;rounded=0;startArrow=ERmany;startFill=0;endFill=0;" edge="1" parent="1" source="jPDuKESHbQuXLP3hNdnU-45" target="jPDuKESHbQuXLP3hNdnU-36">
          <mxGeometry width="50" height="50" relative="1" as="geometry">
            <mxPoint x="642" y="710" as="sourcePoint" />
            <mxPoint x="858" y="630" as="targetPoint" />
          </mxGeometry>
        </mxCell>
        <mxCell id="jPDuKESHbQuXLP3hNdnU-53" value="Evidence Production document" style="ellipse;whiteSpace=wrap;html=1;" vertex="1" parent="1">
          <mxGeometry x="360" y="520" width="120" height="80" as="geometry" />
        </mxCell>
        <mxCell id="jPDuKESHbQuXLP3hNdnU-54" value="" style="endArrow=ERone;html=1;rounded=0;startArrow=ERmany;startFill=0;endFill=0;" edge="1" parent="1" source="jPDuKESHbQuXLP3hNdnU-45" target="jPDuKESHbQuXLP3hNdnU-53">
          <mxGeometry width="50" height="50" relative="1" as="geometry">
            <mxPoint x="470" y="640" as="sourcePoint" />
            <mxPoint x="550" y="700" as="targetPoint" />
          </mxGeometry>
        </mxCell>
        <mxCell id="jPDuKESHbQuXLP3hNdnU-36" value="Evidence Production" style="ellipse;whiteSpace=wrap;html=1;" vertex="1" parent="1">
          <mxGeometry x="520" y="400" width="120" height="80" as="geometry" />
        </mxCell>
        <mxCell id="jPDuKESHbQuXLP3hNdnU-56" value="" style="endArrow=ERone;html=1;rounded=0;startArrow=ERmany;startFill=0;endFill=0;" edge="1" parent="1" source="jPDuKESHbQuXLP3hNdnU-36" target="jPDuKESHbQuXLP3hNdnU-16">
          <mxGeometry width="50" height="50" relative="1" as="geometry">
            <mxPoint x="528" y="480" as="sourcePoint" />
            <mxPoint x="312" y="400" as="targetPoint" />
          </mxGeometry>
        </mxCell>
        <mxCell id="jPDuKESHbQuXLP3hNdnU-59" value="Evidence Production upload" style="ellipse;whiteSpace=wrap;html=1;" vertex="1" parent="1">
          <mxGeometry x="200" y="520" width="120" height="80" as="geometry" />
        </mxCell>
        <mxCell id="jPDuKESHbQuXLP3hNdnU-61" value="" style="endArrow=ERone;html=1;rounded=0;startArrow=ERmany;startFill=0;endFill=0;" edge="1" parent="1" source="jPDuKESHbQuXLP3hNdnU-53" target="jPDuKESHbQuXLP3hNdnU-36">
          <mxGeometry width="50" height="50" relative="1" as="geometry">
            <mxPoint x="590" y="650" as="sourcePoint" />
            <mxPoint x="590" y="490" as="targetPoint" />
          </mxGeometry>
        </mxCell>
        <mxCell id="jPDuKESHbQuXLP3hNdnU-62" value="" style="endArrow=ERone;html=1;rounded=0;startArrow=ERmany;startFill=0;endFill=0;" edge="1" parent="1" source="jPDuKESHbQuXLP3hNdnU-53" target="jPDuKESHbQuXLP3hNdnU-59">
          <mxGeometry width="50" height="50" relative="1" as="geometry">
            <mxPoint x="490" y="640" as="sourcePoint" />
            <mxPoint x="566" y="487" as="targetPoint" />
          </mxGeometry>
        </mxCell>
        <mxCell id="jPDuKESHbQuXLP3hNdnU-63" value="" style="endArrow=ERmandOne;html=1;rounded=0;startArrow=ERmandOne;startFill=0;endFill=0;strokeWidth=3;" edge="1" parent="1" source="jPDuKESHbQuXLP3hNdnU-36" target="jPDuKESHbQuXLP3hNdnU-59">
          <mxGeometry width="50" height="50" relative="1" as="geometry">
            <mxPoint x="730" y="540" as="sourcePoint" />
            <mxPoint x="780" y="490" as="targetPoint" />
          </mxGeometry>
        </mxCell>
        <mxCell id="jPDuKESHbQuXLP3hNdnU-64" value="" style="endArrow=ERmandOne;html=1;rounded=0;startArrow=ERmandOne;startFill=0;endFill=0;strokeWidth=3;" edge="1" parent="1" source="jPDuKESHbQuXLP3hNdnU-36" target="jPDuKESHbQuXLP3hNdnU-19">
          <mxGeometry width="50" height="50" relative="1" as="geometry">
            <mxPoint x="700" y="490" as="sourcePoint" />
            <mxPoint x="870" y="240" as="targetPoint" />
          </mxGeometry>
        </mxCell>
        <mxCell id="jPDuKESHbQuXLP3hNdnU-65" value="" style="endArrow=ERmandOne;html=1;rounded=0;startArrow=ERmandOne;startFill=0;endFill=0;" edge="1" parent="1">
          <mxGeometry width="50" height="50" relative="1" as="geometry">
            <mxPoint x="980" y="39.49" as="sourcePoint" />
            <mxPoint x="1060" y="39.49" as="targetPoint" />
          </mxGeometry>
        </mxCell>
        <mxCell id="jPDuKESHbQuXLP3hNdnU-66" value="1:1" style="text;html=1;align=center;verticalAlign=middle;whiteSpace=wrap;rounded=0;" vertex="1" parent="1">
          <mxGeometry x="1060" y="26" width="58" height="25" as="geometry" />
        </mxCell>
        <mxCell id="jPDuKESHbQuXLP3hNdnU-67" value="" style="endArrow=ERone;html=1;rounded=0;startArrow=ERmany;startFill=0;endFill=0;" edge="1" parent="1">
          <mxGeometry width="50" height="50" relative="1" as="geometry">
            <mxPoint x="1060" y="79.74" as="sourcePoint" />
            <mxPoint x="980" y="79.74" as="targetPoint" />
          </mxGeometry>
        </mxCell>
        <mxCell id="jPDuKESHbQuXLP3hNdnU-68" value="1:n" style="text;html=1;align=center;verticalAlign=middle;whiteSpace=wrap;rounded=0;" vertex="1" parent="1">
          <mxGeometry x="1060" y="64" width="60" height="30" as="geometry" />
        </mxCell>
        <mxCell id="jPDuKESHbQuXLP3hNdnU-29" value="InfoForm" style="ellipse;whiteSpace=wrap;html=1;" vertex="1" parent="1">
          <mxGeometry x="1000" y="400" width="120" height="80" as="geometry" />
        </mxCell>
      </root>
    </mxGraphModel>
  </diagram>
  <diagram id="QS5nDA1OD_a6b500apVs" name="Evidence log">
    <mxGraphModel dx="1687" dy="878" grid="1" gridSize="10" guides="1" tooltips="1" connect="1" arrows="1" fold="1" page="1" pageScale="1" pageWidth="1169" pageHeight="827" math="0" shadow="0">
      <root>
        <mxCell id="0" />
        <mxCell id="1" parent="0" />
        <mxCell id="kS4r-B4YzUKA6Qc6h32--1" value="EEV Matter" style="ellipse;whiteSpace=wrap;html=1;" vertex="1" parent="1">
          <mxGeometry x="360" y="200" width="120" height="80" as="geometry" />
        </mxCell>
        <mxCell id="kS4r-B4YzUKA6Qc6h32--19" value="Evidence" style="ellipse;whiteSpace=wrap;html=1;" vertex="1" parent="1">
          <mxGeometry x="640" y="320" width="120" height="80" as="geometry" />
        </mxCell>
        <mxCell id="kS4r-B4YzUKA6Qc6h32--42" value="Evidence Item" style="ellipse;whiteSpace=wrap;html=1;" vertex="1" parent="1">
          <mxGeometry x="640" y="440" width="120" height="80" as="geometry" />
        </mxCell>
        <mxCell id="kS4r-B4YzUKA6Qc6h32--44" value="Evidence Audit Log" style="ellipse;whiteSpace=wrap;html=1;" vertex="1" parent="1">
          <mxGeometry x="480" y="320" width="120" height="80" as="geometry" />
        </mxCell>
        <mxCell id="kS4r-B4YzUKA6Qc6h32--45" value="" style="endArrow=ERone;html=1;rounded=0;startArrow=ERmany;startFill=0;endFill=0;strokeColor=#FF0000;" edge="1" parent="1" source="kS4r-B4YzUKA6Qc6h32--44" target="kS4r-B4YzUKA6Qc6h32--1">
          <mxGeometry width="50" height="50" relative="1" as="geometry">
            <mxPoint x="430" y="460" as="sourcePoint" />
            <mxPoint x="510" y="400" as="targetPoint" />
          </mxGeometry>
        </mxCell>
        <mxCell id="kS4r-B4YzUKA6Qc6h32--46" value="" style="endArrow=ERone;html=1;rounded=0;startArrow=ERmany;startFill=0;endFill=0;strokeColor=#FF0000;" edge="1" parent="1" source="kS4r-B4YzUKA6Qc6h32--44" target="kS4r-B4YzUKA6Qc6h32--19">
          <mxGeometry width="50" height="50" relative="1" as="geometry">
            <mxPoint x="210" y="694" as="sourcePoint" />
            <mxPoint x="336" y="410" as="targetPoint" />
          </mxGeometry>
        </mxCell>
        <mxCell id="kS4r-B4YzUKA6Qc6h32--47" value="" style="endArrow=ERone;html=1;rounded=0;startArrow=ERmany;startFill=0;endFill=0;strokeColor=#FF3333;" edge="1" parent="1" source="kS4r-B4YzUKA6Qc6h32--44" target="kS4r-B4YzUKA6Qc6h32--42">
          <mxGeometry width="50" height="50" relative="1" as="geometry">
            <mxPoint x="610" y="770" as="sourcePoint" />
            <mxPoint x="818" y="550" as="targetPoint" />
          </mxGeometry>
        </mxCell>
      </root>
    </mxGraphModel>
  </diagram>
  <diagram id="lGE6J8n825wU7JI_PbC4" name="flow diagram">
    <mxGraphModel dx="2261" dy="746" grid="1" gridSize="10" guides="1" tooltips="1" connect="1" arrows="1" fold="1" page="1" pageScale="1" pageWidth="827" pageHeight="1169" math="0" shadow="0">
      <root>
        <mxCell id="0" />
        <mxCell id="1" parent="0" />
        <mxCell id="52XnalAZNIJ-hMC169VB-3" value="" style="edgeStyle=orthogonalEdgeStyle;rounded=0;orthogonalLoop=1;jettySize=auto;html=1;" parent="1" source="52XnalAZNIJ-hMC169VB-1" target="52XnalAZNIJ-hMC169VB-2" edge="1">
          <mxGeometry relative="1" as="geometry" />
        </mxCell>
        <mxCell id="52XnalAZNIJ-hMC169VB-1" value="Enquiry&lt;div&gt;Form&lt;/div&gt;" style="ellipse;whiteSpace=wrap;html=1;aspect=fixed;" parent="1" vertex="1">
          <mxGeometry x="300" y="40" width="80" height="80" as="geometry" />
        </mxCell>
        <mxCell id="52XnalAZNIJ-hMC169VB-6" value="" style="edgeStyle=orthogonalEdgeStyle;rounded=0;orthogonalLoop=1;jettySize=auto;html=1;" parent="1" source="52XnalAZNIJ-hMC169VB-2" target="52XnalAZNIJ-hMC169VB-5" edge="1">
          <mxGeometry relative="1" as="geometry" />
        </mxCell>
        <mxCell id="52XnalAZNIJ-hMC169VB-2" value="Merger enquiry" style="whiteSpace=wrap;html=1;" parent="1" vertex="1">
          <mxGeometry x="280" y="160" width="120" height="40" as="geometry" />
        </mxCell>
        <mxCell id="52XnalAZNIJ-hMC169VB-5" value="Waiver/&lt;div&gt;Pre-lodgement&lt;/div&gt;&lt;div&gt;engagement&lt;/div&gt;" style="ellipse;whiteSpace=wrap;html=1;" parent="1" vertex="1">
          <mxGeometry x="280" y="240" width="120" height="80" as="geometry" />
        </mxCell>
        <mxCell id="52XnalAZNIJ-hMC169VB-7" value="MCMS landing page" style="whiteSpace=wrap;html=1;" parent="1" vertex="1">
          <mxGeometry x="280" y="360" width="120" height="40" as="geometry" />
        </mxCell>
        <mxCell id="52XnalAZNIJ-hMC169VB-8" value="Merger matter summary (General)" style="whiteSpace=wrap;html=1;" parent="1" vertex="1">
          <mxGeometry x="280" y="440" width="120" height="40" as="geometry" />
        </mxCell>
        <mxCell id="52XnalAZNIJ-hMC169VB-9" value="" style="edgeStyle=orthogonalEdgeStyle;rounded=0;orthogonalLoop=1;jettySize=auto;html=1;entryX=0.5;entryY=0;entryDx=0;entryDy=0;exitX=0.5;exitY=1;exitDx=0;exitDy=0;" parent="1" source="52XnalAZNIJ-hMC169VB-5" target="52XnalAZNIJ-hMC169VB-7" edge="1">
          <mxGeometry relative="1" as="geometry">
            <mxPoint x="370" y="330" as="sourcePoint" />
            <mxPoint x="350" y="250" as="targetPoint" />
          </mxGeometry>
        </mxCell>
        <mxCell id="52XnalAZNIJ-hMC169VB-10" value="" style="edgeStyle=orthogonalEdgeStyle;rounded=0;orthogonalLoop=1;jettySize=auto;html=1;entryX=0.5;entryY=0;entryDx=0;entryDy=0;exitX=0.5;exitY=1;exitDx=0;exitDy=0;" parent="1" source="52XnalAZNIJ-hMC169VB-7" target="52XnalAZNIJ-hMC169VB-8" edge="1">
          <mxGeometry relative="1" as="geometry">
            <mxPoint x="360" y="410" as="sourcePoint" />
            <mxPoint x="360" y="260" as="targetPoint" />
          </mxGeometry>
        </mxCell>
        <mxCell id="52XnalAZNIJ-hMC169VB-11" value="Merger matter" style="whiteSpace=wrap;html=1;" parent="1" vertex="1">
          <mxGeometry x="280" y="520" width="120" height="40" as="geometry" />
        </mxCell>
        <mxCell id="52XnalAZNIJ-hMC169VB-12" value="Payment tracker" style="whiteSpace=wrap;html=1;" parent="1" vertex="1">
          <mxGeometry x="120" y="520" width="120" height="40" as="geometry" />
        </mxCell>
        <mxCell id="52XnalAZNIJ-hMC169VB-13" value="Key documents tracker" style="whiteSpace=wrap;html=1;fillColor=#bac8d3;strokeColor=#23445d;" parent="1" vertex="1">
          <mxGeometry x="200" y="600" width="120" height="40" as="geometry" />
        </mxCell>
        <mxCell id="52XnalAZNIJ-hMC169VB-14" value="" style="edgeStyle=orthogonalEdgeStyle;rounded=0;orthogonalLoop=1;jettySize=auto;html=1;entryX=0.5;entryY=0;entryDx=0;entryDy=0;exitX=0.5;exitY=1;exitDx=0;exitDy=0;" parent="1" source="52XnalAZNIJ-hMC169VB-8" target="52XnalAZNIJ-hMC169VB-11" edge="1">
          <mxGeometry relative="1" as="geometry">
            <mxPoint x="330" y="490" as="sourcePoint" />
            <mxPoint x="350" y="450" as="targetPoint" />
          </mxGeometry>
        </mxCell>
        <mxCell id="52XnalAZNIJ-hMC169VB-15" value="" style="edgeStyle=orthogonalEdgeStyle;rounded=0;orthogonalLoop=1;jettySize=auto;html=1;entryX=0.5;entryY=0;entryDx=0;entryDy=0;exitX=0.5;exitY=1;exitDx=0;exitDy=0;" parent="1" source="52XnalAZNIJ-hMC169VB-11" target="52XnalAZNIJ-hMC169VB-13" edge="1">
          <mxGeometry relative="1" as="geometry">
            <mxPoint x="360" y="420" as="sourcePoint" />
            <mxPoint x="360" y="460" as="targetPoint" />
          </mxGeometry>
        </mxCell>
        <mxCell id="52XnalAZNIJ-hMC169VB-16" value="" style="edgeStyle=orthogonalEdgeStyle;rounded=0;orthogonalLoop=1;jettySize=auto;html=1;exitX=0.5;exitY=1;exitDx=0;exitDy=0;entryX=0.5;entryY=0;entryDx=0;entryDy=0;" parent="1" source="52XnalAZNIJ-hMC169VB-12" target="52XnalAZNIJ-hMC169VB-13" edge="1">
          <mxGeometry relative="1" as="geometry">
            <mxPoint x="350" y="490" as="sourcePoint" />
            <mxPoint x="420" y="600" as="targetPoint" />
          </mxGeometry>
        </mxCell>
        <mxCell id="52XnalAZNIJ-hMC169VB-17" value="Merger enquiry" style="rounded=0;whiteSpace=wrap;html=1;fillColor=#d5e8d4;strokeColor=#82b366;" parent="1" vertex="1">
          <mxGeometry x="680" y="160" width="120" height="40" as="geometry" />
        </mxCell>
        <mxCell id="52XnalAZNIJ-hMC169VB-18" value="" style="endArrow=none;dashed=1;html=1;dashPattern=1 3;strokeWidth=2;rounded=0;exitX=1;exitY=0.5;exitDx=0;exitDy=0;entryX=0;entryY=0.5;entryDx=0;entryDy=0;" parent="1" source="52XnalAZNIJ-hMC169VB-2" target="52XnalAZNIJ-hMC169VB-17" edge="1">
          <mxGeometry width="50" height="50" relative="1" as="geometry">
            <mxPoint x="500" y="510" as="sourcePoint" />
            <mxPoint x="580" y="180" as="targetPoint" />
          </mxGeometry>
        </mxCell>
        <mxCell id="52XnalAZNIJ-hMC169VB-19" value="Submission of&amp;nbsp;&lt;div&gt;online - Merger&amp;nbsp;&lt;/div&gt;&lt;div&gt;enquiry form&lt;/div&gt;" style="ellipse;shape=cloud;whiteSpace=wrap;html=1;" parent="1" vertex="1">
          <mxGeometry x="40" y="35" width="170" height="90" as="geometry" />
        </mxCell>
        <mxCell id="52XnalAZNIJ-hMC169VB-21" value="Lodgement of Waiver&lt;div&gt;/&amp;nbsp;&lt;span style=&quot;background-color: transparent; color: light-dark(rgb(0, 0, 0), rgb(255, 255, 255));&quot;&gt;Pre-lodgement&amp;nbsp;&lt;/span&gt;&lt;div&gt;engagement request&lt;/div&gt;&lt;/div&gt;" style="ellipse;shape=cloud;whiteSpace=wrap;html=1;" parent="1" vertex="1">
          <mxGeometry x="40" y="235" width="170" height="90" as="geometry" />
        </mxCell>
        <mxCell id="52XnalAZNIJ-hMC169VB-22" value="" style="endArrow=none;dashed=1;html=1;dashPattern=1 3;strokeWidth=2;rounded=0;" parent="1" source="52XnalAZNIJ-hMC169VB-19" target="52XnalAZNIJ-hMC169VB-1" edge="1">
          <mxGeometry width="50" height="50" relative="1" as="geometry">
            <mxPoint x="230" y="110" as="sourcePoint" />
            <mxPoint x="300" y="100" as="targetPoint" />
          </mxGeometry>
        </mxCell>
        <mxCell id="52XnalAZNIJ-hMC169VB-23" value="" style="endArrow=none;dashed=1;html=1;dashPattern=1 3;strokeWidth=2;rounded=0;" parent="1" source="52XnalAZNIJ-hMC169VB-21" target="52XnalAZNIJ-hMC169VB-5" edge="1">
          <mxGeometry width="50" height="50" relative="1" as="geometry">
            <mxPoint x="220" y="86" as="sourcePoint" />
            <mxPoint x="370" y="89" as="targetPoint" />
          </mxGeometry>
        </mxCell>
        <mxCell id="52XnalAZNIJ-hMC169VB-24" value="Portal m&lt;span style=&quot;background-color: transparent; color: light-dark(rgb(0, 0, 0), rgb(255, 255, 255));&quot;&gt;erger matter&lt;/span&gt;" style="rounded=1;whiteSpace=wrap;html=1;fillColor=#dae8fc;strokeColor=#6c8ebf;" parent="1" vertex="1">
          <mxGeometry x="480" y="520" width="120" height="40" as="geometry" />
        </mxCell>
        <mxCell id="52XnalAZNIJ-hMC169VB-25" value="Merger portal" style="rounded=0;whiteSpace=wrap;html=1;fillColor=#d5e8d4;strokeColor=#82b366;" parent="1" vertex="1">
          <mxGeometry x="680" y="520" width="120" height="40" as="geometry" />
        </mxCell>
        <mxCell id="52XnalAZNIJ-hMC169VB-26" value="" style="endArrow=none;dashed=1;html=1;dashPattern=1 3;strokeWidth=2;rounded=0;" parent="1" source="52XnalAZNIJ-hMC169VB-24" target="52XnalAZNIJ-hMC169VB-25" edge="1">
          <mxGeometry width="50" height="50" relative="1" as="geometry">
            <mxPoint x="410" y="190" as="sourcePoint" />
            <mxPoint x="690" y="190" as="targetPoint" />
          </mxGeometry>
        </mxCell>
        <mxCell id="52XnalAZNIJ-hMC169VB-27" value="People grid" style="whiteSpace=wrap;html=1;" parent="1" vertex="1">
          <mxGeometry x="200" y="680" width="120" height="40" as="geometry" />
        </mxCell>
        <mxCell id="52XnalAZNIJ-hMC169VB-28" value="" style="edgeStyle=orthogonalEdgeStyle;rounded=0;orthogonalLoop=1;jettySize=auto;html=1;" parent="1" source="52XnalAZNIJ-hMC169VB-13" target="52XnalAZNIJ-hMC169VB-27" edge="1">
          <mxGeometry relative="1" as="geometry">
            <mxPoint x="350" y="490" as="sourcePoint" />
            <mxPoint x="350" y="530" as="targetPoint" />
          </mxGeometry>
        </mxCell>
        <mxCell id="52XnalAZNIJ-hMC169VB-29" value="People grid" style="rounded=1;whiteSpace=wrap;html=1;fillColor=#ffe6cc;strokeColor=#d79b00;" parent="1" vertex="1">
          <mxGeometry x="480" y="680" width="120" height="40" as="geometry" />
        </mxCell>
        <mxCell id="52XnalAZNIJ-hMC169VB-30" value="Submission contact" style="whiteSpace=wrap;html=1;" parent="1" vertex="1">
          <mxGeometry x="280" y="760" width="120" height="40" as="geometry" />
        </mxCell>
        <mxCell id="52XnalAZNIJ-hMC169VB-31" value="Submission tracker" style="whiteSpace=wrap;html=1;" parent="1" vertex="1">
          <mxGeometry x="120" y="760" width="120" height="40" as="geometry" />
        </mxCell>
        <mxCell id="52XnalAZNIJ-hMC169VB-32" value="" style="edgeStyle=orthogonalEdgeStyle;rounded=0;orthogonalLoop=1;jettySize=auto;html=1;entryX=0.5;entryY=0;entryDx=0;entryDy=0;exitX=0.5;exitY=1;exitDx=0;exitDy=0;" parent="1" source="52XnalAZNIJ-hMC169VB-27" target="52XnalAZNIJ-hMC169VB-31" edge="1">
          <mxGeometry relative="1" as="geometry">
            <mxPoint x="270" y="650" as="sourcePoint" />
            <mxPoint x="270" y="690" as="targetPoint" />
          </mxGeometry>
        </mxCell>
        <mxCell id="52XnalAZNIJ-hMC169VB-33" style="edgeStyle=orthogonalEdgeStyle;rounded=0;orthogonalLoop=1;jettySize=auto;html=1;entryX=0.5;entryY=0;entryDx=0;entryDy=0;" parent="1" source="52XnalAZNIJ-hMC169VB-27" target="52XnalAZNIJ-hMC169VB-30" edge="1">
          <mxGeometry relative="1" as="geometry" />
        </mxCell>
        <mxCell id="52XnalAZNIJ-hMC169VB-34" value="Submissions" style="rounded=1;whiteSpace=wrap;html=1;fillColor=#dae8fc;strokeColor=#6c8ebf;" parent="1" vertex="1">
          <mxGeometry x="480" y="760" width="120" height="40" as="geometry" />
        </mxCell>
        <mxCell id="52XnalAZNIJ-hMC169VB-35" value="Payment" style="rounded=1;whiteSpace=wrap;html=1;fillColor=#dae8fc;strokeColor=#6c8ebf;" parent="1" vertex="1">
          <mxGeometry x="480" y="840" width="120" height="40" as="geometry" />
        </mxCell>
        <mxCell id="52XnalAZNIJ-hMC169VB-36" value="Payment" style="whiteSpace=wrap;html=1;" parent="1" vertex="1">
          <mxGeometry x="200" y="840" width="120" height="40" as="geometry" />
        </mxCell>
        <mxCell id="52XnalAZNIJ-hMC169VB-37" value="" style="edgeStyle=orthogonalEdgeStyle;rounded=0;orthogonalLoop=1;jettySize=auto;html=1;entryX=0.5;entryY=0;entryDx=0;entryDy=0;exitX=0.5;exitY=1;exitDx=0;exitDy=0;" parent="1" source="52XnalAZNIJ-hMC169VB-31" target="52XnalAZNIJ-hMC169VB-36" edge="1">
          <mxGeometry relative="1" as="geometry">
            <mxPoint x="270" y="730" as="sourcePoint" />
            <mxPoint x="190" y="770" as="targetPoint" />
          </mxGeometry>
        </mxCell>
        <mxCell id="52XnalAZNIJ-hMC169VB-38" value="" style="edgeStyle=orthogonalEdgeStyle;rounded=0;orthogonalLoop=1;jettySize=auto;html=1;exitX=0.5;exitY=1;exitDx=0;exitDy=0;entryX=0.5;entryY=0;entryDx=0;entryDy=0;" parent="1" source="52XnalAZNIJ-hMC169VB-30" target="52XnalAZNIJ-hMC169VB-36" edge="1">
          <mxGeometry relative="1" as="geometry">
            <mxPoint x="190" y="810" as="sourcePoint" />
            <mxPoint x="270" y="810" as="targetPoint" />
          </mxGeometry>
        </mxCell>
        <mxCell id="52XnalAZNIJ-hMC169VB-39" value="Notification&lt;div&gt;Effective notification date&lt;/div&gt;" style="ellipse;whiteSpace=wrap;html=1;" parent="1" vertex="1">
          <mxGeometry x="280" y="920" width="120" height="80" as="geometry" />
        </mxCell>
        <mxCell id="52XnalAZNIJ-hMC169VB-40" value="" style="edgeStyle=orthogonalEdgeStyle;rounded=0;orthogonalLoop=1;jettySize=auto;html=1;exitX=0.5;exitY=1;exitDx=0;exitDy=0;entryX=0.5;entryY=0;entryDx=0;entryDy=0;" parent="1" source="52XnalAZNIJ-hMC169VB-36" target="52XnalAZNIJ-hMC169VB-39" edge="1">
          <mxGeometry relative="1" as="geometry">
            <mxPoint x="110" y="890" as="sourcePoint" />
            <mxPoint x="110" y="930" as="targetPoint" />
          </mxGeometry>
        </mxCell>
        <mxCell id="52XnalAZNIJ-hMC169VB-42" value="Lodgement of&amp;nbsp;&lt;div&gt;Notification request&lt;/div&gt;" style="ellipse;shape=cloud;whiteSpace=wrap;html=1;" parent="1" vertex="1">
          <mxGeometry x="40" y="915" width="170" height="90" as="geometry" />
        </mxCell>
        <mxCell id="52XnalAZNIJ-hMC169VB-43" value="" style="endArrow=none;dashed=1;html=1;dashPattern=1 3;strokeWidth=2;rounded=0;" parent="1" source="52XnalAZNIJ-hMC169VB-42" target="52XnalAZNIJ-hMC169VB-39" edge="1">
          <mxGeometry width="50" height="50" relative="1" as="geometry">
            <mxPoint x="220" y="290" as="sourcePoint" />
            <mxPoint x="290" y="290" as="targetPoint" />
          </mxGeometry>
        </mxCell>
        <mxCell id="52XnalAZNIJ-hMC169VB-44" value="Public register" style="whiteSpace=wrap;html=1;" parent="1" vertex="1">
          <mxGeometry x="280" y="1040" width="120" height="40" as="geometry" />
        </mxCell>
        <mxCell id="52XnalAZNIJ-hMC169VB-45" value="" style="edgeStyle=orthogonalEdgeStyle;rounded=0;orthogonalLoop=1;jettySize=auto;html=1;exitX=0.5;exitY=1;exitDx=0;exitDy=0;entryX=0.5;entryY=0;entryDx=0;entryDy=0;" parent="1" source="52XnalAZNIJ-hMC169VB-39" target="52XnalAZNIJ-hMC169VB-44" edge="1">
          <mxGeometry relative="1" as="geometry">
            <mxPoint x="270" y="890" as="sourcePoint" />
            <mxPoint x="350" y="930" as="targetPoint" />
          </mxGeometry>
        </mxCell>
        <mxCell id="52XnalAZNIJ-hMC169VB-46" value="Clock" style="rounded=1;whiteSpace=wrap;html=1;fillColor=#dae8fc;strokeColor=#6c8ebf;" parent="1" vertex="1">
          <mxGeometry x="480" y="1120" width="120" height="40" as="geometry" />
        </mxCell>
        <mxCell id="52XnalAZNIJ-hMC169VB-47" value="Public register" style="rounded=1;whiteSpace=wrap;html=1;fillColor=#dae8fc;strokeColor=#6c8ebf;" parent="1" vertex="1">
          <mxGeometry x="480" y="1040" width="120" height="40" as="geometry" />
        </mxCell>
        <mxCell id="52XnalAZNIJ-hMC169VB-48" value="Remedy" style="rounded=1;whiteSpace=wrap;html=1;fillColor=#dae8fc;strokeColor=#6c8ebf;" parent="1" vertex="1">
          <mxGeometry x="480" y="1200" width="120" height="40" as="geometry" />
        </mxCell>
        <mxCell id="52XnalAZNIJ-hMC169VB-49" value="Clock" style="whiteSpace=wrap;html=1;" parent="1" vertex="1">
          <mxGeometry x="280" y="1120" width="120" height="40" as="geometry" />
        </mxCell>
        <mxCell id="52XnalAZNIJ-hMC169VB-50" value="Remedy" style="whiteSpace=wrap;html=1;" parent="1" vertex="1">
          <mxGeometry x="280" y="1200" width="120" height="40" as="geometry" />
        </mxCell>
        <mxCell id="52XnalAZNIJ-hMC169VB-52" value="Market enquiry tracker" style="whiteSpace=wrap;html=1;" parent="1" vertex="1">
          <mxGeometry x="280" y="1280" width="120" height="40" as="geometry" />
        </mxCell>
        <mxCell id="52XnalAZNIJ-hMC169VB-53" value="" style="edgeStyle=orthogonalEdgeStyle;rounded=0;orthogonalLoop=1;jettySize=auto;html=1;exitX=0.5;exitY=1;exitDx=0;exitDy=0;entryX=0.5;entryY=0;entryDx=0;entryDy=0;" parent="1" source="52XnalAZNIJ-hMC169VB-44" target="52XnalAZNIJ-hMC169VB-49" edge="1">
          <mxGeometry relative="1" as="geometry">
            <mxPoint x="199" y="1100" as="sourcePoint" />
            <mxPoint x="199" y="1140" as="targetPoint" />
          </mxGeometry>
        </mxCell>
        <mxCell id="52XnalAZNIJ-hMC169VB-54" value="" style="edgeStyle=orthogonalEdgeStyle;rounded=0;orthogonalLoop=1;jettySize=auto;html=1;exitX=0.5;exitY=1;exitDx=0;exitDy=0;entryX=0.5;entryY=0;entryDx=0;entryDy=0;" parent="1" source="52XnalAZNIJ-hMC169VB-49" target="52XnalAZNIJ-hMC169VB-50" edge="1">
          <mxGeometry relative="1" as="geometry">
            <mxPoint x="209" y="1110" as="sourcePoint" />
            <mxPoint x="209" y="1150" as="targetPoint" />
          </mxGeometry>
        </mxCell>
        <mxCell id="52XnalAZNIJ-hMC169VB-55" value="" style="edgeStyle=orthogonalEdgeStyle;rounded=0;orthogonalLoop=1;jettySize=auto;html=1;exitX=0.5;exitY=1;exitDx=0;exitDy=0;entryX=0.5;entryY=0;entryDx=0;entryDy=0;" parent="1" source="52XnalAZNIJ-hMC169VB-50" target="52XnalAZNIJ-hMC169VB-52" edge="1">
          <mxGeometry relative="1" as="geometry">
            <mxPoint x="219" y="1120" as="sourcePoint" />
            <mxPoint x="219" y="1160" as="targetPoint" />
          </mxGeometry>
        </mxCell>
        <mxCell id="52XnalAZNIJ-hMC169VB-56" value="Market enquiry" style="rounded=0;whiteSpace=wrap;html=1;fillColor=#d5e8d4;strokeColor=#82b366;" parent="1" vertex="1">
          <mxGeometry x="680" y="1280" width="120" height="40" as="geometry" />
        </mxCell>
        <mxCell id="52XnalAZNIJ-hMC169VB-57" value="" style="endArrow=none;dashed=1;html=1;dashPattern=1 3;strokeWidth=2;rounded=0;" parent="1" source="52XnalAZNIJ-hMC169VB-52" target="52XnalAZNIJ-hMC169VB-56" edge="1">
          <mxGeometry width="50" height="50" relative="1" as="geometry">
            <mxPoint x="510" y="1320" as="sourcePoint" />
            <mxPoint x="560" y="1390" as="targetPoint" />
          </mxGeometry>
        </mxCell>
        <mxCell id="52XnalAZNIJ-hMC169VB-58" value="S155 / RFI tracker" style="whiteSpace=wrap;html=1;" parent="1" vertex="1">
          <mxGeometry x="120" y="1360" width="120" height="40" as="geometry" />
        </mxCell>
        <mxCell id="52XnalAZNIJ-hMC169VB-61" value="Jurisdiction" style="whiteSpace=wrap;html=1;" parent="1" vertex="1">
          <mxGeometry x="280" y="1440" width="120" height="40" as="geometry" />
        </mxCell>
        <mxCell id="52XnalAZNIJ-hMC169VB-64" value="S155 / RFI" style="whiteSpace=wrap;html=1;" parent="1" vertex="1">
          <mxGeometry x="280" y="1360" width="120" height="40" as="geometry" />
        </mxCell>
        <mxCell id="52XnalAZNIJ-hMC169VB-65" value="S155/RFI" style="rounded=1;whiteSpace=wrap;html=1;fillColor=#dae8fc;strokeColor=#6c8ebf;" parent="1" vertex="1">
          <mxGeometry x="480" y="1330" width="120" height="40" as="geometry" />
        </mxCell>
        <mxCell id="52XnalAZNIJ-hMC169VB-66" value="Jurisdiction" style="rounded=1;whiteSpace=wrap;html=1;fillColor=#dae8fc;strokeColor=#6c8ebf;" parent="1" vertex="1">
          <mxGeometry x="480" y="1440" width="120" height="40" as="geometry" />
        </mxCell>
        <mxCell id="52XnalAZNIJ-hMC169VB-67" value="EEV" style="rounded=1;whiteSpace=wrap;html=1;fillColor=#ffe6cc;strokeColor=#d79b00;" parent="1" vertex="1">
          <mxGeometry x="480" y="1390" width="120" height="40" as="geometry" />
        </mxCell>
        <mxCell id="52XnalAZNIJ-hMC169VB-68" value="" style="endArrow=none;dashed=1;html=1;dashPattern=1 3;strokeWidth=2;rounded=0;exitX=1;exitY=0.5;exitDx=0;exitDy=0;entryX=0;entryY=0.5;entryDx=0;entryDy=0;" parent="1" source="52XnalAZNIJ-hMC169VB-64" target="52XnalAZNIJ-hMC169VB-65" edge="1">
          <mxGeometry width="50" height="50" relative="1" as="geometry">
            <mxPoint x="410" y="1310" as="sourcePoint" />
            <mxPoint x="690" y="1310" as="targetPoint" />
          </mxGeometry>
        </mxCell>
        <mxCell id="52XnalAZNIJ-hMC169VB-69" value="" style="endArrow=none;dashed=1;html=1;dashPattern=1 3;strokeWidth=2;rounded=0;exitX=1;exitY=0.5;exitDx=0;exitDy=0;entryX=0;entryY=0.5;entryDx=0;entryDy=0;" parent="1" source="52XnalAZNIJ-hMC169VB-64" target="52XnalAZNIJ-hMC169VB-67" edge="1">
          <mxGeometry width="50" height="50" relative="1" as="geometry">
            <mxPoint x="410" y="1390" as="sourcePoint" />
            <mxPoint x="490" y="1360" as="targetPoint" />
          </mxGeometry>
        </mxCell>
        <mxCell id="52XnalAZNIJ-hMC169VB-70" value="Related matter tracker" style="whiteSpace=wrap;html=1;" parent="1" vertex="1">
          <mxGeometry x="280" y="1520" width="120" height="40" as="geometry" />
        </mxCell>
        <mxCell id="52XnalAZNIJ-hMC169VB-71" value="Undertaking" style="whiteSpace=wrap;html=1;" parent="1" vertex="1">
          <mxGeometry x="280" y="1600" width="120" height="40" as="geometry" />
        </mxCell>
        <mxCell id="52XnalAZNIJ-hMC169VB-72" value="Legal service funding" style="whiteSpace=wrap;html=1;" parent="1" vertex="1">
          <mxGeometry x="280" y="1680" width="120" height="40" as="geometry" />
        </mxCell>
        <mxCell id="52XnalAZNIJ-hMC169VB-73" value="Decision" style="whiteSpace=wrap;html=1;" parent="1" vertex="1">
          <mxGeometry x="280" y="1760" width="120" height="40" as="geometry" />
        </mxCell>
        <mxCell id="52XnalAZNIJ-hMC169VB-75" value="Undertakings" style="rounded=1;whiteSpace=wrap;html=1;fillColor=#ffe6cc;strokeColor=#d79b00;" parent="1" vertex="1">
          <mxGeometry x="480" y="1600" width="120" height="40" as="geometry" />
        </mxCell>
        <mxCell id="52XnalAZNIJ-hMC169VB-76" value="Legal service funding" style="rounded=1;whiteSpace=wrap;html=1;fillColor=#ffe6cc;strokeColor=#d79b00;" parent="1" vertex="1">
          <mxGeometry x="480" y="1680" width="120" height="40" as="geometry" />
        </mxCell>
        <mxCell id="52XnalAZNIJ-hMC169VB-77" value="" style="endArrow=none;dashed=1;html=1;dashPattern=1 3;strokeWidth=2;rounded=0;" parent="1" source="52XnalAZNIJ-hMC169VB-72" target="52XnalAZNIJ-hMC169VB-76" edge="1">
          <mxGeometry width="50" height="50" relative="1" as="geometry">
            <mxPoint x="410" y="1390" as="sourcePoint" />
            <mxPoint x="480" y="1770" as="targetPoint" />
          </mxGeometry>
        </mxCell>
        <mxCell id="52XnalAZNIJ-hMC169VB-78" value="" style="endArrow=none;dashed=1;html=1;dashPattern=1 3;strokeWidth=2;rounded=0;" parent="1" source="52XnalAZNIJ-hMC169VB-71" target="52XnalAZNIJ-hMC169VB-75" edge="1">
          <mxGeometry width="50" height="50" relative="1" as="geometry">
            <mxPoint x="410" y="1710" as="sourcePoint" />
            <mxPoint x="490" y="1710" as="targetPoint" />
          </mxGeometry>
        </mxCell>
        <mxCell id="52XnalAZNIJ-hMC169VB-80" value="" style="edgeStyle=orthogonalEdgeStyle;rounded=0;orthogonalLoop=1;jettySize=auto;html=1;exitX=0.5;exitY=1;exitDx=0;exitDy=0;" parent="1" source="52XnalAZNIJ-hMC169VB-52" target="52XnalAZNIJ-hMC169VB-64" edge="1">
          <mxGeometry relative="1" as="geometry">
            <mxPoint x="60" y="1270" as="sourcePoint" />
            <mxPoint x="60" y="1310" as="targetPoint" />
          </mxGeometry>
        </mxCell>
        <mxCell id="52XnalAZNIJ-hMC169VB-81" value="" style="edgeStyle=orthogonalEdgeStyle;rounded=0;orthogonalLoop=1;jettySize=auto;html=1;exitX=0.5;exitY=1;exitDx=0;exitDy=0;entryX=0.5;entryY=0;entryDx=0;entryDy=0;" parent="1" source="52XnalAZNIJ-hMC169VB-64" target="52XnalAZNIJ-hMC169VB-61" edge="1">
          <mxGeometry relative="1" as="geometry">
            <mxPoint x="70" y="1280" as="sourcePoint" />
            <mxPoint x="70" y="1320" as="targetPoint" />
          </mxGeometry>
        </mxCell>
        <mxCell id="52XnalAZNIJ-hMC169VB-82" value="" style="edgeStyle=orthogonalEdgeStyle;rounded=0;orthogonalLoop=1;jettySize=auto;html=1;exitX=0.5;exitY=1;exitDx=0;exitDy=0;entryX=0.5;entryY=0;entryDx=0;entryDy=0;" parent="1" source="52XnalAZNIJ-hMC169VB-61" target="52XnalAZNIJ-hMC169VB-70" edge="1">
          <mxGeometry relative="1" as="geometry">
            <mxPoint x="80" y="1290" as="sourcePoint" />
            <mxPoint x="80" y="1330" as="targetPoint" />
          </mxGeometry>
        </mxCell>
        <mxCell id="52XnalAZNIJ-hMC169VB-83" value="" style="edgeStyle=orthogonalEdgeStyle;rounded=0;orthogonalLoop=1;jettySize=auto;html=1;exitX=0.5;exitY=1;exitDx=0;exitDy=0;entryX=0.5;entryY=0;entryDx=0;entryDy=0;" parent="1" source="52XnalAZNIJ-hMC169VB-71" target="52XnalAZNIJ-hMC169VB-72" edge="1">
          <mxGeometry relative="1" as="geometry">
            <mxPoint x="90" y="1300" as="sourcePoint" />
            <mxPoint x="90" y="1340" as="targetPoint" />
          </mxGeometry>
        </mxCell>
        <mxCell id="52XnalAZNIJ-hMC169VB-84" value="" style="edgeStyle=orthogonalEdgeStyle;rounded=0;orthogonalLoop=1;jettySize=auto;html=1;exitX=0.5;exitY=1;exitDx=0;exitDy=0;entryX=0.5;entryY=0;entryDx=0;entryDy=0;" parent="1" source="52XnalAZNIJ-hMC169VB-70" target="52XnalAZNIJ-hMC169VB-71" edge="1">
          <mxGeometry relative="1" as="geometry">
            <mxPoint x="100" y="1310" as="sourcePoint" />
            <mxPoint x="100" y="1350" as="targetPoint" />
          </mxGeometry>
        </mxCell>
        <mxCell id="52XnalAZNIJ-hMC169VB-85" value="" style="edgeStyle=orthogonalEdgeStyle;rounded=0;orthogonalLoop=1;jettySize=auto;html=1;entryX=0.5;entryY=0;entryDx=0;entryDy=0;exitX=0.5;exitY=1;exitDx=0;exitDy=0;" parent="1" source="52XnalAZNIJ-hMC169VB-72" target="52XnalAZNIJ-hMC169VB-73" edge="1">
          <mxGeometry relative="1" as="geometry">
            <mxPoint x="230" y="1740" as="sourcePoint" />
            <mxPoint x="110" y="1360" as="targetPoint" />
          </mxGeometry>
        </mxCell>
        <mxCell id="52XnalAZNIJ-hMC169VB-86" value="Phase 2" style="ellipse;whiteSpace=wrap;html=1;aspect=fixed;" parent="1" vertex="1">
          <mxGeometry x="300" y="1840" width="80" height="80" as="geometry" />
        </mxCell>
        <mxCell id="52XnalAZNIJ-hMC169VB-87" value="" style="edgeStyle=orthogonalEdgeStyle;rounded=0;orthogonalLoop=1;jettySize=auto;html=1;entryX=0.5;entryY=0;entryDx=0;entryDy=0;exitX=0.5;exitY=1;exitDx=0;exitDy=0;" parent="1" source="52XnalAZNIJ-hMC169VB-73" target="52XnalAZNIJ-hMC169VB-86" edge="1">
          <mxGeometry relative="1" as="geometry">
            <mxPoint x="410" y="1820" as="sourcePoint" />
            <mxPoint x="350" y="1770" as="targetPoint" />
          </mxGeometry>
        </mxCell>
        <mxCell id="bq14V3hDSwo8zhEgOAf1-1" value="ACCC website /&amp;nbsp;&lt;div&gt;Merger portal (?)&lt;/div&gt;&lt;div&gt;if Merger, anonymous/login user?&lt;/div&gt;" style="text;html=1;align=center;verticalAlign=middle;whiteSpace=wrap;rounded=0;fillColor=#e1d5e7;strokeColor=#9673a6;dashed=1;strokeWidth=3;" vertex="1" parent="1">
          <mxGeometry x="500" y="10" width="160" height="60" as="geometry" />
        </mxCell>
        <mxCell id="bq14V3hDSwo8zhEgOAf1-2" value="" style="curved=1;endArrow=classic;html=1;rounded=0;dashed=1;strokeColor=light-dark(#00ff00, #ededed);" edge="1" parent="1" source="bq14V3hDSwo8zhEgOAf1-1" target="52XnalAZNIJ-hMC169VB-1">
          <mxGeometry width="50" height="50" relative="1" as="geometry">
            <mxPoint x="390" y="410" as="sourcePoint" />
            <mxPoint x="440" y="360" as="targetPoint" />
            <Array as="points">
              <mxPoint x="480" y="60" />
              <mxPoint x="450" y="60" />
            </Array>
          </mxGeometry>
        </mxCell>
        <mxCell id="bq14V3hDSwo8zhEgOAf1-3" value="Integration between ACCC website and Corporate CRM" style="text;html=1;align=center;verticalAlign=middle;whiteSpace=wrap;rounded=0;fillColor=#e1d5e7;strokeColor=#9673a6;dashed=1;strokeWidth=3;" vertex="1" parent="1">
          <mxGeometry x="470" y="95" width="130" height="55" as="geometry" />
        </mxCell>
        <mxCell id="bq14V3hDSwo8zhEgOAf1-4" value="" style="curved=1;endArrow=classic;html=1;rounded=0;dashed=1;strokeColor=light-dark(#00ff00, #ededed);" edge="1" parent="1" source="bq14V3hDSwo8zhEgOAf1-3">
          <mxGeometry width="50" height="50" relative="1" as="geometry">
            <mxPoint x="496" y="60" as="sourcePoint" />
            <mxPoint x="340" y="140" as="targetPoint" />
            <Array as="points">
              <mxPoint x="450" y="110" />
            </Array>
          </mxGeometry>
        </mxCell>
        <mxCell id="bq14V3hDSwo8zhEgOAf1-5" value="Merger portal (?)" style="text;html=1;align=center;verticalAlign=middle;whiteSpace=wrap;rounded=0;fillColor=#e1d5e7;strokeColor=#9673a6;dashed=1;strokeWidth=3;" vertex="1" parent="1">
          <mxGeometry x="544" y="235" width="130" height="55" as="geometry" />
        </mxCell>
        <mxCell id="bq14V3hDSwo8zhEgOAf1-6" value="" style="curved=1;endArrow=classic;html=1;rounded=0;dashed=1;strokeColor=light-dark(#00ff00, #ededed);" edge="1" parent="1" source="bq14V3hDSwo8zhEgOAf1-5" target="52XnalAZNIJ-hMC169VB-5">
          <mxGeometry width="50" height="50" relative="1" as="geometry">
            <mxPoint x="570" y="200" as="sourcePoint" />
            <mxPoint x="414" y="280" as="targetPoint" />
            <Array as="points">
              <mxPoint x="524" y="250" />
            </Array>
          </mxGeometry>
        </mxCell>
        <mxCell id="bq14V3hDSwo8zhEgOAf1-7" value="What to display?" style="text;html=1;align=center;verticalAlign=middle;whiteSpace=wrap;rounded=0;fillColor=#e1d5e7;strokeColor=#9673a6;dashed=1;strokeWidth=3;" vertex="1" parent="1">
          <mxGeometry x="560" y="340" width="130" height="55" as="geometry" />
        </mxCell>
        <mxCell id="bq14V3hDSwo8zhEgOAf1-8" value="" style="curved=1;endArrow=classic;html=1;rounded=0;dashed=1;strokeColor=light-dark(#00ff00, #ededed);" edge="1" parent="1" source="bq14V3hDSwo8zhEgOAf1-7">
          <mxGeometry width="50" height="50" relative="1" as="geometry">
            <mxPoint x="586" y="305" as="sourcePoint" />
            <mxPoint x="414" y="375" as="targetPoint" />
            <Array as="points">
              <mxPoint x="540" y="355" />
            </Array>
          </mxGeometry>
        </mxCell>
        <mxCell id="bq14V3hDSwo8zhEgOAf1-9" value="?" style="text;html=1;align=center;verticalAlign=middle;whiteSpace=wrap;rounded=0;fillColor=#e1d5e7;strokeColor=#9673a6;dashed=1;strokeWidth=3;" vertex="1" parent="1">
          <mxGeometry x="550" y="425" width="130" height="55" as="geometry" />
        </mxCell>
        <mxCell id="bq14V3hDSwo8zhEgOAf1-10" value="" style="curved=1;endArrow=classic;html=1;rounded=0;dashed=1;strokeColor=light-dark(#00ff00, #ededed);" edge="1" parent="1" source="bq14V3hDSwo8zhEgOAf1-9">
          <mxGeometry width="50" height="50" relative="1" as="geometry">
            <mxPoint x="576" y="390" as="sourcePoint" />
            <mxPoint x="404" y="460" as="targetPoint" />
            <Array as="points">
              <mxPoint x="530" y="440" />
            </Array>
          </mxGeometry>
        </mxCell>
        <mxCell id="--aE2p9GG8z7hkQjoz6W-1" value="Role (?)&amp;nbsp;&lt;div&gt;Generate Payment reference to marry it up when payment is made and integration happens &amp;amp; flag as payed.&lt;/div&gt;" style="text;html=1;align=left;verticalAlign=middle;whiteSpace=wrap;rounded=0;fillColor=#e1d5e7;strokeColor=#9673a6;dashed=1;strokeWidth=3;" vertex="1" parent="1">
          <mxGeometry x="-130" y="440" width="150" height="100" as="geometry" />
        </mxCell>
        <mxCell id="--aE2p9GG8z7hkQjoz6W-2" value="" style="curved=1;endArrow=classic;html=1;rounded=0;dashed=1;strokeColor=light-dark(#00ff00, #ededed);" edge="1" parent="1" source="--aE2p9GG8z7hkQjoz6W-1" target="52XnalAZNIJ-hMC169VB-12">
          <mxGeometry width="50" height="50" relative="1" as="geometry">
            <mxPoint x="112" y="345" as="sourcePoint" />
            <mxPoint x="-60" y="415" as="targetPoint" />
            <Array as="points" />
          </mxGeometry>
        </mxCell>
      </root>
    </mxGraphModel>
  </diagram>
  <diagram id="bAJ4G_RUWIZjEnwyThMC" name="Process flow">
    <mxGraphModel dx="1434" dy="746" grid="1" gridSize="10" guides="1" tooltips="1" connect="1" arrows="1" fold="1" page="1" pageScale="1" pageWidth="827" pageHeight="1169" math="0" shadow="0">
      <root>
        <mxCell id="0" />
        <mxCell id="1" parent="0" />
        <mxCell id="HDZpCDaHdu8slG3uOD4s-1" value="Notification" style="rhombus;whiteSpace=wrap;html=1;" vertex="1" parent="1">
          <mxGeometry x="320" y="200" width="160" height="80" as="geometry" />
        </mxCell>
        <mxCell id="HDZpCDaHdu8slG3uOD4s-2" value="Waiver" style="rhombus;whiteSpace=wrap;html=1;" vertex="1" parent="1">
          <mxGeometry x="320" y="40" width="160" height="80" as="geometry" />
        </mxCell>
        <mxCell id="HDZpCDaHdu8slG3uOD4s-3" value="Rejected" style="endArrow=classic;html=1;rounded=0;exitX=0.5;exitY=1;exitDx=0;exitDy=0;entryX=0.5;entryY=0;entryDx=0;entryDy=0;" edge="1" parent="1" source="HDZpCDaHdu8slG3uOD4s-2" target="HDZpCDaHdu8slG3uOD4s-1">
          <mxGeometry width="50" height="50" relative="1" as="geometry">
            <mxPoint x="390" y="310" as="sourcePoint" />
            <mxPoint x="440" y="260" as="targetPoint" />
          </mxGeometry>
        </mxCell>
        <mxCell id="HDZpCDaHdu8slG3uOD4s-4" value="No further applications displayed" style="ellipse;whiteSpace=wrap;html=1;aspect=fixed;fillColor=#bac8d3;strokeColor=#23445d;" vertex="1" parent="1">
          <mxGeometry x="640" y="40" width="80" height="80" as="geometry" />
        </mxCell>
        <mxCell id="HDZpCDaHdu8slG3uOD4s-5" value="Approved" style="endArrow=classic;html=1;rounded=0;exitX=1;exitY=0.5;exitDx=0;exitDy=0;entryX=0;entryY=0.5;entryDx=0;entryDy=0;" edge="1" parent="1" source="HDZpCDaHdu8slG3uOD4s-2" target="HDZpCDaHdu8slG3uOD4s-4">
          <mxGeometry width="50" height="50" relative="1" as="geometry">
            <mxPoint x="410" y="130" as="sourcePoint" />
            <mxPoint x="410" y="210" as="targetPoint" />
          </mxGeometry>
        </mxCell>
        <mxCell id="HDZpCDaHdu8slG3uOD4s-6" value="Pre-lodgement&amp;nbsp;&lt;div&gt;engagement&lt;/div&gt;" style="rhombus;whiteSpace=wrap;html=1;" vertex="1" parent="1">
          <mxGeometry x="80" y="40" width="160" height="80" as="geometry" />
        </mxCell>
        <mxCell id="HDZpCDaHdu8slG3uOD4s-7" value="Allocated" style="endArrow=classic;html=1;rounded=0;exitX=0.5;exitY=1;exitDx=0;exitDy=0;entryX=0.5;entryY=0;entryDx=0;entryDy=0;strokeColor=#FF0000;" edge="1" parent="1" source="HDZpCDaHdu8slG3uOD4s-6" target="HDZpCDaHdu8slG3uOD4s-1">
          <mxGeometry width="50" height="50" relative="1" as="geometry">
            <mxPoint x="390" y="310" as="sourcePoint" />
            <mxPoint x="440" y="260" as="targetPoint" />
          </mxGeometry>
        </mxCell>
        <mxCell id="HDZpCDaHdu8slG3uOD4s-8" value="No further applications displayed" style="ellipse;whiteSpace=wrap;html=1;aspect=fixed;fillColor=#bac8d3;strokeColor=#23445d;" vertex="1" parent="1">
          <mxGeometry x="640" y="200" width="80" height="80" as="geometry" />
        </mxCell>
        <mxCell id="HDZpCDaHdu8slG3uOD4s-9" value="Approved" style="endArrow=classic;html=1;rounded=0;exitX=1;exitY=0.5;exitDx=0;exitDy=0;entryX=0;entryY=0.5;entryDx=0;entryDy=0;" edge="1" parent="1" source="HDZpCDaHdu8slG3uOD4s-1" target="HDZpCDaHdu8slG3uOD4s-8">
          <mxGeometry width="50" height="50" relative="1" as="geometry">
            <mxPoint x="490" y="90" as="sourcePoint" />
            <mxPoint x="650" y="90" as="targetPoint" />
          </mxGeometry>
        </mxCell>
        <mxCell id="HDZpCDaHdu8slG3uOD4s-11" value="Open" style="endArrow=classic;html=1;rounded=0;exitX=0;exitY=0.5;exitDx=0;exitDy=0;" edge="1" parent="1" source="HDZpCDaHdu8slG3uOD4s-1" target="HDZpCDaHdu8slG3uOD4s-28">
          <mxGeometry width="50" height="50" relative="1" as="geometry">
            <mxPoint x="320" y="330" as="sourcePoint" />
            <mxPoint x="650" y="250" as="targetPoint" />
          </mxGeometry>
        </mxCell>
        <mxCell id="HDZpCDaHdu8slG3uOD4s-13" value="Audit failed" style="endArrow=classic;html=1;rounded=0;exitX=0.5;exitY=1;exitDx=0;exitDy=0;" edge="1" parent="1" source="HDZpCDaHdu8slG3uOD4s-1" target="HDZpCDaHdu8slG3uOD4s-31">
          <mxGeometry width="50" height="50" relative="1" as="geometry">
            <mxPoint x="410" y="130" as="sourcePoint" />
            <mxPoint x="160" y="360" as="targetPoint" />
          </mxGeometry>
        </mxCell>
        <mxCell id="HDZpCDaHdu8slG3uOD4s-14" value="Phase 2" style="rhombus;whiteSpace=wrap;html=1;" vertex="1" parent="1">
          <mxGeometry x="320" y="520" width="160" height="80" as="geometry" />
        </mxCell>
        <mxCell id="HDZpCDaHdu8slG3uOD4s-15" value="Rejected" style="endArrow=classic;html=1;rounded=0;exitX=0.5;exitY=1;exitDx=0;exitDy=0;entryX=0.5;entryY=0;entryDx=0;entryDy=0;" edge="1" parent="1" source="HDZpCDaHdu8slG3uOD4s-1" target="HDZpCDaHdu8slG3uOD4s-14">
          <mxGeometry width="50" height="50" relative="1" as="geometry">
            <mxPoint x="550" y="310" as="sourcePoint" />
            <mxPoint x="550" y="390" as="targetPoint" />
          </mxGeometry>
        </mxCell>
        <mxCell id="HDZpCDaHdu8slG3uOD4s-16" value="No further applications displayed" style="ellipse;whiteSpace=wrap;html=1;aspect=fixed;fillColor=#bac8d3;strokeColor=#23445d;" vertex="1" parent="1">
          <mxGeometry x="640" y="520" width="80" height="80" as="geometry" />
        </mxCell>
        <mxCell id="HDZpCDaHdu8slG3uOD4s-17" value="Approved" style="endArrow=classic;html=1;rounded=0;exitX=1;exitY=0.5;exitDx=0;exitDy=0;entryX=0;entryY=0.5;entryDx=0;entryDy=0;" edge="1" parent="1" target="HDZpCDaHdu8slG3uOD4s-16">
          <mxGeometry width="50" height="50" relative="1" as="geometry">
            <mxPoint x="480" y="560" as="sourcePoint" />
            <mxPoint x="650" y="410" as="targetPoint" />
          </mxGeometry>
        </mxCell>
        <mxCell id="HDZpCDaHdu8slG3uOD4s-19" value="Open" style="endArrow=classic;html=1;rounded=0;exitX=0;exitY=0.5;exitDx=0;exitDy=0;" edge="1" parent="1" target="HDZpCDaHdu8slG3uOD4s-29">
          <mxGeometry width="50" height="50" relative="1" as="geometry">
            <mxPoint x="320" y="560" as="sourcePoint" />
            <mxPoint x="240" y="560" as="targetPoint" />
          </mxGeometry>
        </mxCell>
        <mxCell id="HDZpCDaHdu8slG3uOD4s-20" value="SPB" style="rhombus;whiteSpace=wrap;html=1;" vertex="1" parent="1">
          <mxGeometry x="320" y="680" width="160" height="80" as="geometry" />
        </mxCell>
        <mxCell id="HDZpCDaHdu8slG3uOD4s-21" value="Rejected" style="endArrow=classic;html=1;rounded=0;exitX=0.5;exitY=1;exitDx=0;exitDy=0;entryX=0.5;entryY=0;entryDx=0;entryDy=0;" edge="1" parent="1" source="HDZpCDaHdu8slG3uOD4s-14" target="HDZpCDaHdu8slG3uOD4s-20">
          <mxGeometry width="50" height="50" relative="1" as="geometry">
            <mxPoint x="490" y="280" as="sourcePoint" />
            <mxPoint x="490" y="520" as="targetPoint" />
          </mxGeometry>
        </mxCell>
        <mxCell id="HDZpCDaHdu8slG3uOD4s-23" value="Open" style="endArrow=classic;html=1;rounded=0;exitX=0;exitY=0.5;exitDx=0;exitDy=0;" edge="1" parent="1" target="HDZpCDaHdu8slG3uOD4s-30">
          <mxGeometry width="50" height="50" relative="1" as="geometry">
            <mxPoint x="320" y="720" as="sourcePoint" />
            <mxPoint x="240" y="720" as="targetPoint" />
          </mxGeometry>
        </mxCell>
        <mxCell id="HDZpCDaHdu8slG3uOD4s-24" value="No further applications displayed" style="ellipse;whiteSpace=wrap;html=1;aspect=fixed;fillColor=#bac8d3;strokeColor=#23445d;" vertex="1" parent="1">
          <mxGeometry x="640" y="680" width="80" height="80" as="geometry" />
        </mxCell>
        <mxCell id="HDZpCDaHdu8slG3uOD4s-25" value="Approved/Rejected" style="endArrow=classic;html=1;rounded=0;exitX=1;exitY=0.5;exitDx=0;exitDy=0;entryX=0;entryY=0.5;entryDx=0;entryDy=0;" edge="1" parent="1" target="HDZpCDaHdu8slG3uOD4s-24">
          <mxGeometry width="50" height="50" relative="1" as="geometry">
            <mxPoint x="480" y="720" as="sourcePoint" />
            <mxPoint x="650" y="570" as="targetPoint" />
            <mxPoint as="offset" />
          </mxGeometry>
        </mxCell>
        <mxCell id="HDZpCDaHdu8slG3uOD4s-27" value="Audit failed" style="endArrow=classic;html=1;rounded=0;exitX=0.5;exitY=1;exitDx=0;exitDy=0;" edge="1" parent="1" source="HDZpCDaHdu8slG3uOD4s-20" target="HDZpCDaHdu8slG3uOD4s-32">
          <mxGeometry width="50" height="50" relative="1" as="geometry">
            <mxPoint x="340" y="740" as="sourcePoint" />
            <mxPoint x="100" y="820" as="targetPoint" />
          </mxGeometry>
        </mxCell>
        <mxCell id="HDZpCDaHdu8slG3uOD4s-28" value="Remedy" style="rounded=0;whiteSpace=wrap;html=1;fillColor=#dae8fc;strokeColor=#6c8ebf;" vertex="1" parent="1">
          <mxGeometry x="80" y="200" width="160" height="80" as="geometry" />
        </mxCell>
        <mxCell id="HDZpCDaHdu8slG3uOD4s-29" value="Remedy" style="rounded=0;whiteSpace=wrap;html=1;fillColor=#dae8fc;strokeColor=#6c8ebf;" vertex="1" parent="1">
          <mxGeometry x="80" y="520" width="160" height="80" as="geometry" />
        </mxCell>
        <mxCell id="HDZpCDaHdu8slG3uOD4s-30" value="Remedy" style="rounded=0;whiteSpace=wrap;html=1;fillColor=#dae8fc;strokeColor=#6c8ebf;" vertex="1" parent="1">
          <mxGeometry x="80" y="680" width="160" height="80" as="geometry" />
        </mxCell>
        <mxCell id="HDZpCDaHdu8slG3uOD4s-31" value="Rectification" style="rounded=0;whiteSpace=wrap;html=1;fillColor=#d5e8d4;strokeColor=#82b366;" vertex="1" parent="1">
          <mxGeometry x="80" y="360" width="160" height="80" as="geometry" />
        </mxCell>
        <mxCell id="HDZpCDaHdu8slG3uOD4s-32" value="Rectification" style="rounded=0;whiteSpace=wrap;html=1;fillColor=#d5e8d4;strokeColor=#82b366;" vertex="1" parent="1">
          <mxGeometry x="80" y="840" width="160" height="80" as="geometry" />
        </mxCell>
      </root>
    </mxGraphModel>
  </diagram>
</mxfile>
